<svg xmlns="http://www.w3.org/2000/svg" width="1024" height="1024" viewBox="0 0 1024 1024">
  <defs>
    <linearGradient id="space" x1="140" y1="96" x2="870" y2="930" gradientUnits="userSpaceOnUse">
      <stop offset="0" stop-color="#17132f"/>
      <stop offset="0.55" stop-color="#101d3d"/>
      <stop offset="1" stop-color="#07111f"/>
    </linearGradient>
    <linearGradient id="orbit" x1="228" y1="260" x2="796" y2="772" gradientUnits="userSpaceOnUse">
      <stop stop-color="#70e1ff"/>
      <stop offset="0.5" stop-color="#8b7cff"/>
      <stop offset="1" stop-color="#ff77c8"/>
    </linearGradient>
    <filter id="glow" x="-40%" y="-40%" width="180%" height="180%">
      <feGaussianBlur stdDeviation="14" result="blur"/>
      <feMerge>
        <feMergeNode in="blur"/>
        <feMergeNode in="SourceGraphic"/>
      </feMerge>
    </filter>
  </defs>
  <rect x="72" y="72" width="880" height="880" rx="206" fill="url(#space)"/>
  <circle cx="512" cy="512" r="305" fill="none" stroke="#2c3d6b" stroke-width="8"/>
  <ellipse cx="512" cy="512" rx="360" ry="176" transform="rotate(-20 512 512)"
           fill="none" stroke="url(#orbit)" stroke-width="24" filter="url(#glow)"/>
  <ellipse cx="512" cy="512" rx="176" ry="360" transform="rotate(38 512 512)"
           fill="none" stroke="url(#orbit)" stroke-width="15" opacity="0.74"/>
  <circle cx="512" cy="512" r="170" fill="#111b35" stroke="#91e9ff" stroke-width="8"/>
  <circle cx="512" cy="512" r="145" fill="#0a1226"/>
  <path d="M423 431 503 512 423 593" fill="none" stroke="#d8f7ff" stroke-width="42"
        stroke-linecap="round" stroke-linejoin="round"/>
  <path d="M540 600h116" fill="none" stroke="#ff8bd2" stroke-width="34" stroke-linecap="round"/>
  <circle cx="784" cy="367" r="28" fill="#fff0a6" filter="url(#glow)"/>
  <circle cx="283" cy="700" r="18" fill="#9eeeff"/>
  <circle cx="315" cy="285" r="12" fill="#ffffff"/>
</svg>
